# xmcd CD database file generated by OrangeCD 6.3
#
# Track frame offsets:
#	150
#	12524
#	27789
#	39970
#	50996
#	62766
#	79511
#	92569
#	107974
#	118029
#
# Disc length: 2099 seconds
#
# Revision: 2
# Processed by: cddbd v1.5.2PL0 Copyright (c) Steve Scherf et al.
# Submitted via: OrangeCD 6.3
#
DISCID=7c08310a
DTITLE=Various Artist - Big Blues Collection
DYEAR=1900
DGENRE=Blues
TTITLE0=Little Johnny Taylor - Everybody knows about my good thing
TTITLE1=Joe Blue - Encourage me baby
TTITLE2=Elmore James - Blues before sunrise
TTITLE3=Memphis Slim - Lonesome
TTITLE4=John Lee Hooker - Boogie chillun
TTITLE5=T-bone Walker - No do right
TTITLE6=Sonny Terry and Brownie McGhee - Walk on
TTITLE7=Artie White - Learning tree
TTITLE8=John Lee Hooker - Dimples
TTITLE9=Ake Turner - All tee blues,all the time
EXTD=Efes Pilsener blues collectionTome 9 (Jam #3)
EXTT0=
EXTT1=
EXTT2=
EXTT3=
EXTT4=
EXTT5=
EXTT6=
EXTT7=
EXTT8=
EXTT9=
PLAYORDER=
